<svg xmlns="http://www.w3.org/2000/svg" viewBox="0 0 256 256" width="32" height="32"><path d="M177.234 8c-.326.013-.58.104-.75.266l-29.718 35.296-6.063 20.844c-4.12-.136-8.374-.187-12.734-.187C97.08 64.219 72 67.49 72 71.547c0 9.68 111.922 9.68 111.922 0 0-3-13.399-5.535-32.719-6.735L156 47.656l27.797-33.437.047-.047c.624-.648-.594-2.593-2.578-4.297-1.488-1.284-3.053-1.913-4.032-1.875zm-38.812 64.61l-.11.328c-.048.04-.046.092-.046.14 0 .6 2.423 1.094 5.375 1.094s5.39-.494 5.39-1.094l.094-.375c.776.28 1.203.6 1.203.969 0 .968-2.998 1.759-6.734 1.719-3.632 0-6.64-.735-6.64-1.703 0-.416.596-.799 1.468-1.079zm44.875 2.75c-14.808 7.895-95.699 7.949-110.563.109l6.579 57.86c2.856-9.225 10.079-21.678 19.375-25.454 3.048-1.248 6.142-1.242 9.046.422 2.52 1.384 4.651 4.285 4.891 5.437.584 3-.964 4.188-2.172 4.188-1.456 0-2.569-2.112-3.297-3.36-1.984-3.368-4.987-3.512-8.187-1.296-3.344 2.304-6.25 6.178-8.281 9.546-2.472 4.056-4.557 8.528-5.813 13-.728 2.584-1.393 6.724-.281 9.172.488 1.016 1.207 1.657 2.375 1.657 2.424 0 5.945-3.04 7.64-4.657 2.177-2.072 4.983-5.303 6.047-7.375l2.532-7.14c1.256-3.136 4.781-2.584 4.781 0 0 4.704-1.78 6.272-4.828 16-2.808 8.992-3.688 11.906-3.688 11.906-.336 1.288-1.647 3.453-3.047 3.453-.584 0-1.01-.194-1.25-.562-.488-.648-.438-2.427-.39-2.891.096-1.472 3.043-10.241 3.531-11.625a58.883 58.883 0 01-3.094 3.047c-2.616 2.352-6.822 5.437-10.406 5.437-1.648 0-2.703-.421-3.719-1.109l3.672 36.703c.968 2.304 18.983 7.89 42.703 7.89 23.768 0 41.768-5.626 42.688-7.89l5.281-43.61c-2.76 2.4-5.948 5.357-9.484 6.829-2.616 1.064-8.422 1.743-8.422-2.64 0-2.4 4.409-6.819 6.969-9.907.68-.784 2.265-2.718 2.265-3.734 0-1.336-2.896-1.028-5.656 1.14-1.552 1.248-3.01 2.917-4.219 4.485-2.08 2.768-3.19 5.156-4.11 7.14-3 6.544-1.981 3.965-4.405 10.141-2.424 6.136-2.028 5.437-2.516 6.453-.432.88-1.066 1.622-1.938 2.078-.92.464-2.177.412-2.953-.14-.432-.28-.64-.88-.64-1.703 0-.416.06-.834.156-1.25.728-2.816 3.778-8.341 7.266-15.813.776-1.704.479-1.198.375-1.062-3 2.768-5.281 4.107-6.97 4.843-2.807 1.2-6.295 1.198-7.015-1.89-.048-.184-.045-.379-.093-.563-5.712 4.24-11.76 5.394-9.672-3.734-2.224 3.784-6.108 6.875-10.86 6.875-1.984 0-3.436-.64-4.156-2.344-1.112-2.536.627-6.88 2.219-10.984.824-2.072 1.949-4.565 3.453-7.469.776-1.568 2.024-2.494 3.672-2.078.288.096.541.192.781.328 1.256.832.773 2.064.14 3.312-1.84 3.456-3.435 5.994-4.5 9.594-.431 1.52-.977 4.156.72 4.156 1.16 0 2.271-.373 3.343-1.109 2.224-1.568 4.015-3.915 5.375-6.219.968-1.656 2.135-3.824 2.719-5.671.24-.784.539-1.523.875-2.22.536-1.151 1.252-2.343 2.516-2.343.632 0 1.155.232 1.547.688.824 1.016.643 2.06.203 3.171-.968 2.584-2.272 4.896-3.344 7.704-.632 1.616-1.313 3.686-1.313 5.39 0 1.568 1.793 1.195 3.297.547 1.16-.504 2.321-1.278 3.297-2.062.584-2.256.43-1.758 12.781-31.454.632-1.52 1.794-2.171 2.954-2.171.584 0 1.058.195 1.546.515.824.6.836 1.876.5 2.844-.336.88-.3.604-2.187 4.844-2.52 5.576-4.159 9.598-6.39 14.718-.92 2.12-3.724 8.714-4.204 10.282-.288 1.016-.635 2.671.485 2.671 2.616 0 9.347-6.043 11.187-7.843.096-.136.246-.186.438-.282.288-.88.572-1.699.812-2.53.68-1.753 1.314-3.796 2.578-5.22.384-.464.817-.734 1.297-.734 1.352 0 2.031.548 2.031 1.844 0 .504-.33 2.355-.53 2.86a45.27 45.27 0 012.171-2.063c7.264-6.408 12.437-3.139 12.437.093 0 3.408-4.303 8.15-6.671 10.782-.776.88-2.374 2.489-2.422 2.953 0 .6.43.844 1.062.844.968 0 3.1-1.62 3.875-2.172 2.424-1.8 5.704-4.564 8.032-6.5zm-95.86 116.89l7.22 11.719 2.812 36.61c0 4.103 13.699 7.42 30.547 7.42s30.546-3.317 30.546-7.42l2.235-36.985 6.812-11.344c-19.176 7.704-60.22 7.976-80.171 0z" fill="#ff2d2d" font-family="none" font-weight="none" font-size="none" text-anchor="none"/></svg>