<svg xmlns="http://www.w3.org/2000/svg" viewBox="0 0 256 256" width="50" height="50"><path d="M152.92 15.4c-.54.08-1.08.24-1.6.48-4.4 2.18-9.4 8.66-10.36 9.94-.06.08-.12.16-.16.24-4.94 7.4-7.58 16.06-7.68 25.08-.06 6.76 1.26 13.46 3.94 19.92 6.24 14.98 19.2 27.38 34.62 33.18.52.18 1.02.36 1.92.68.08.04.84.28.96.3l.56.2c.8.26 1.62.52 2.42.68 4.06.82 8.02 1.28 11.74 1.4.64 0 1.28.02 1.92.02 28.06 0 38.94-19.8 42.56-26.4.36-.64.62-1.16.86-1.48 0-.02 0-.02.02-.04 1.58-2.34.98-5.52-1.36-7.12-2.32-1.58-5.5-.98-7.1 1.36h-.02c-7.48 11.02-20.28 14.36-38.02 9.96-1.32-.32-2.76-.82-4.04-1.3-1.68-.6-3.36-1.3-4.92-2.06-3.1-1.54-6.02-3.38-8.66-5.42-15.6-12.1-21.7-37.28-12.58-51.82a5.12 5.12 0 00-5.02-7.8zm-45.36 10.2c-1.16-.02-2.34.36-3.3 1.16-7.74 6.3-15.66 16.62-16 17.04-.04.08-.08.14-.14.22-14 20.38-15.06 49.38-2.68 73.88 1.94 3.88 4.14 7.58 6.48 10.98l.7 1c1.98 2.9 4.2 6.18 7.04 8.74.98 1.12 2.04 2.2 3.08 3.24l.5.52.42.42c1.06 1.02 2.14 2.06 3.26 3.06h.02c.08.12.2.2.3.3 1.26 1.12 2.54 2.18 4.24 3.52l.46.34a85.23 85.23 0 004.04 3.04l.42.3c.48.32.96.62 1.44.96l.48.32.56.36c1.02.68 2.02 1.3 3.44 2.12.92.56 1.9 1.12 2.54 1.44.28.16.58.32 1.28.7l1.56.82c.08.04.44.2.52.24 1.02.52 2.08 1.02 3.14 1.5l1.62.72c1.06.46 2.14.9 3.46 1.4l.6.22c.04.04.54.22.58.24.96.34 1.94.68 2.92 1l2.24.74c1.12.38 2.42.82 3.84 1.06 6.98 1.16 13.76 1.76 20.18 1.76.76 0 1.52-.02 2.26-.02 56.52-1.24 71.22-49.26 71.36-49.74.7-2.42-.44-5-2.72-6.08-2.28-1.08-5-.32-6.42 1.76-14.32 20.92-41.4 29.76-68.98 22.48-1.28-.32-2.52-.68-4.06-1.18a13.7 13.7 0 01-.9-.32c-.9-.28-1.78-.58-2.78-.96l-1.42-.54c-.82-.32-1.64-.64-2.64-1.08l-.66-.3c-1.22-.52-2.4-1.1-3.46-1.62l-2.92-1.52c-.66-.32-1.24-.68-2.14-1.22l-.5-.28-.5-.3c-.74-.44-1.48-.9-2.16-1.38l-.48-.3c-.04-.02-.44-.3-.48-.34-.6-.38-1.18-.76-1.74-1.12a93.89 93.89 0 01-3.88-2.92l-.56-.46c-13.2-10.54-22.96-24.62-27.54-39.72-4.26-13.86-1.1-32 8.46-48.52 1.24-2.14.78-4.86-1.12-6.46-.94-.8-2.1-1.22-3.26-1.22zM51.22 40.96c-1.22 0-2.46.44-3.44 1.32-9.78 8.78-17.1 20.16-17.9 21.46C8.96 94.2 13 141.54 27.36 170.48c.28.6.58 1.18.88 1.76l.2.32c.26.58.56 1.18.66 1.3.16.38.4.8.5.92.24.5.48.94.92 1.7l1.64 2.82c.24.38.48.78.56.92.32.52.66 1.06 1 1.6l.8 1.28c.24.38.48.72.64.92.8 1.24 1.6 2.48 2.48 3.66.04.06.08.1.12.14l.32.44c.72 1.04 1.46 2.04 2.12 2.86l2.92 3.7c.04.04.36.42.38.46l.42.48c.88 1.08 1.82 2.16 2.76 3.2.14.16.28.3.42.46.9.98 1.82 1.96 2.78 2.98l.92.88c.76.8 1.52 1.58 2.32 2.32 0 .02.38.38.38.38l.8.74c.96.92 1.96 1.84 2.72 2.48.04.06.76.68.82.72.94.84 1.88 1.64 2.84 2.42l4.9 3.88c.82.6 1.66 1.2 2.62 1.9.32.24.66.48 1 .7.14.12.3.24.4.3l3.68 2.46c1.34.88 2.68 1.7 4.32 2.68l.88.5c1.02.6 2.06 1.2 3.04 1.72.58.32 1.16.6 1.66.86.7.38 1.46.8 2.62 1.36.1.06.92.46 1.02.5 1.16.58 2.34 1.12 3.82 1.78 0 .02.48.24.48.24 1.36.58 2.68 1.14 4.42 1.84.28.12.56.22.62.24 1.24.48 2.54.96 3.6 1.34l.74.3c1.42.48 2.82.94 4.62 1.5.3.1.62.2.66.2l1.02.32c1.24.38 2.48.78 3.82 1.04 9.52 1.74 18.82 2.64 27.62 2.64h.02c73.34 0 96.7-59.02 96.94-59.62.9-2.38-.08-5.06-2.32-6.3-2.2-1.22-5-.64-6.56 1.38-18.82 24.78-54.32 33.98-94.96 24.64-.98-.24-1.98-.52-2.96-.82l-1.92-.58c-1.3-.4-2.6-.84-3.86-1.28-.02 0-.6-.22-.6-.22-1.12-.38-2.24-.82-3.22-1.2l-1.12-.44c-1.24-.5-2.48-1.02-3.68-1.56l-.7-.3c-1.08-.5-2.12-.98-3.16-1.5-.08-.04-.9-.44-.98-.46-.72-.36-1.44-.74-2.36-1.24l-4.18-2.24c-.42-.28-.86-.54-1.28-.76-1.26-.78-2.56-1.56-3.84-2.38-.3-.18-.56-.38-1.06-.72a81.11 81.11 0 01-3-2.02l-.5-.36c-.86-.6-1.7-1.24-2.4-1.76-.44-.32-.88-.68-1.6-1.22-.64-.5-1.28-.98-1.88-1.46l-1.12-.92c-.94-.76-1.82-1.56-2.74-2.34-.12-.12-.22-.2-.36-.3-1.02-.94-2.06-1.88-3.3-3.06l-3.62-3.6c-.88-.9-1.76-1.82-2.76-2.92-.92-1.02-1.8-2.04-2.98-3.44L68.02 159c-.26-.38-.54-.76-.88-1.16-.74-1-1.48-1.98-2.22-3.02C45 127.38 39.8 70.1 55.32 49.12a5.119 5.119 0 00-.68-6.84c-.96-.88-2.2-1.32-3.42-1.32z" fill="#1169ae" font-family="none" font-weight="none" font-size="none" text-anchor="none"/></svg>