<svg xmlns="http://www.w3.org/2000/svg" viewBox="0 0 80 80" width="40" height="40"><path fill="#dcd5f2" d="M40 61.5C18.22 61.5.5 51.855.5 40S18.22 18.5 40 18.5 79.5 28.145 79.5 40 61.78 61.5 40 61.5z"/><path fill="#8b75a1" d="M40 19c21.505 0 39 9.421 39 21S61.505 61 40 61 1 51.579 1 40s17.495-21 39-21m0-1C17.909 18 0 27.85 0 40s17.909 22 40 22 40-9.85 40-22-17.909-22-40-22z"/><path fill="#36404d" d="M25.112 34c1.725 0 3.214.622 4.084 1.706.749.934.981 2.171.668 3.577C29.023 43.074 27.395 44 21.57 44h-4.14l1.75-10h5.932m0-2H17.5L14 52h2l1.056-6h4.515c5.863 0 9.053-.905 10.246-6.284C32.842 35.096 29.436 32 25.112 32zm36 2c1.725 0 3.214.622 4.084 1.706.749.934.981 2.171.668 3.577C65.023 43.074 63.395 44 57.57 44h-4.14l1.75-10h5.932m0-2H53.5L50 52h2l1.056-6h4.515c5.863 0 9.053-.905 10.246-6.284C68.842 35.096 65.436 32 61.112 32zm-12.04 1.212C48.193 32.348 46.644 32 44.334 32h-5.538L40 26h-2.1L34 46h1.99l2.388-12h5.957c2.338 0 3.094.4 3.335.637.343.338.424 1.226.217 2.363l-1.767 9h2.106l1.626-8.63c.347-1.908.084-3.308-.78-4.158z"/></svg>