<svg xmlns="http://www.w3.org/2000/svg" viewBox="0 0 256 256" width="30" height="30"><path d="M91.133 35.683c-5.214 0-10.05 1.168-14.333 3.634-13.388 7.729-18.483 26.565-15.783 50.016C39.362 98.721 25.6 112.543 25.6 128s13.762 29.28 35.417 38.667c-2.7 23.45 2.395 42.287 15.783 50.016 4.275 2.466 9.11 3.634 14.333 3.634 11.116 0 23.963-5.58 36.867-15.15 12.905 9.57 25.768 15.15 36.883 15.15 5.214 0 10.05-1.168 14.334-3.634 13.387-7.73 18.483-26.565 15.783-50.016 21.647-9.388 35.4-23.214 35.4-38.667 0-15.457-13.762-29.28-35.417-38.667 2.7-23.45-2.395-42.287-15.783-50.016-4.275-2.475-9.11-3.634-14.333-3.634-11.116 0-23.963 5.58-36.867 15.15-12.904-9.57-25.755-15.15-36.867-15.15zm0 14.934c6.67 0 15.49 3.546 25.067 10.116-5.63 5.314-11.145 11.356-16.45 18.084-8.605 1.233-16.718 3.032-24.233 5.283-.04-.521-.136-1.068-.167-1.583-.913-15.19 2.423-26.512 8.917-30.267 1.92-1.11 4.161-1.633 6.866-1.633zm73.734 0c2.696 0 4.946.524 6.866 1.633 6.494 3.746 9.83 15.077 8.917 30.267-.031.515-.126 1.062-.167 1.583-7.52-2.252-15.639-4.05-24.25-5.283-5.305-6.727-10.803-12.77-16.433-18.084 9.576-6.569 18.4-10.116 25.067-10.116zM128 70.217c2.313 2.105 4.61 4.33 6.933 6.766-2.302-.077-4.592-.183-6.933-.183-2.336 0-4.62.106-6.917.183A136.382 136.382 0 01128 70.217zm0 21.516c7.071 0 13.774.396 20.133 1.084 3.879 5.271 7.7 10.844 11.284 17.05 3.434 5.948 6.47 12.036 9.15 18.133-2.68 6.1-5.714 12.198-9.15 18.15-3.572 6.187-7.385 11.725-11.25 16.983-6.584.72-13.338 1.134-20.167 1.134-7.071 0-13.774-.396-20.133-1.084-3.879-5.271-7.7-10.828-11.284-17.033-3.436-5.952-6.47-12.05-9.15-18.15 2.679-6.097 5.716-12.185 9.15-18.133 3.573-6.188 7.384-11.742 11.25-17 6.584-.72 13.338-1.134 20.167-1.134zm40.5 4.617c3.386.817 6.64 1.7 9.7 2.683a139.102 139.102 0 01-2.5 9.55c-1.098-2.06-2.163-4.127-3.35-6.183-1.221-2.115-2.577-4.014-3.85-6.05zm-81.017.017c-1.268 2.029-2.616 3.925-3.833 6.033-1.187 2.056-2.252 4.122-3.35 6.183-.961-3.232-1.823-6.428-2.517-9.566 3.116-.985 6.363-1.857 9.7-2.65zm-23.75 8.133c1.798 7.591 4.292 15.46 7.5 23.483-3.2 8.004-5.684 15.859-7.483 23.434-14.86-7.177-23.217-16.11-23.217-23.417 0-7.5 8.123-16.049 21.734-22.85.464-.233.992-.423 1.466-.65zm128.517.083c14.86 7.176 23.217 16.11 23.217 23.417 0 7.5-8.123 16.049-21.734 22.85-.464.232-.992.423-1.466.65-1.8-7.596-4.273-15.473-7.484-23.5 3.198-7.997 5.67-15.848 7.467-23.417zm-64.25 6.35c-9.43 0-17.067 7.638-17.067 17.067 0 9.43 7.638 17.067 17.067 17.067 9.43 0 17.067-7.638 17.067-17.067 0-9.43-7.638-17.067-17.067-17.067zm-47.7 36.484c1.098 2.06 2.18 4.126 3.367 6.183 1.22 2.113 2.562 4.016 3.833 6.05-3.386-.818-6.64-1.7-9.7-2.683.694-3.135 1.54-6.323 2.5-9.55zm95.4.016c.96 3.23 1.823 6.415 2.517 9.55-3.116.985-6.363 1.856-9.7 2.65 1.268-2.03 2.615-3.925 3.833-6.033 1.184-2.052 2.254-4.11 3.35-6.167zM75.517 171.9c7.52 2.252 15.639 4.05 24.25 5.283 5.306 6.73 10.8 12.785 16.433 18.1-9.576 6.568-18.397 10.117-25.067 10.117-2.696 0-4.946-.54-6.866-1.65-6.494-3.746-9.83-15.06-8.917-30.25.031-.52.126-1.073.167-1.6zm104.966 0c.041.527.136 1.08.167 1.6.913 15.19-2.423 26.495-8.917 30.25-1.92 1.11-4.161 1.65-6.866 1.65-6.67 0-15.491-3.547-25.067-10.117 5.633-5.315 11.142-11.369 16.45-18.1 8.605-1.234 16.718-3.032 24.233-5.283zm-59.416 7.117c2.302.077 4.592.183 6.933.183s4.631-.106 6.933-.183a136.222 136.222 0 01-6.933 6.766 136.294 136.294 0 01-6.933-6.766z" fill="#5ed3f3" font-family="none" font-weight="none" font-size="none" text-anchor="none"/></svg>