<svg width="33" height="33" fill="none" xmlns="http://www.w3.org/2000/svg"><circle cx="16.5" cy="16.1" r="15.6" fill="url(#paint0_linear_1_466)" fill-opacity=".05" stroke="url(#paint1_linear_1_466)"/><path d="M16.074 13.84a2.69 2.69 0 00-2.684 2.684 2.69 2.69 0 002.684 2.684 2.69 2.69 0 002.685-2.684 2.69 2.69 0 00-2.685-2.685zm8.052 2.684c0-1.112.01-2.213-.053-3.323-.062-1.289-.356-2.433-1.299-3.375-.944-.945-2.086-1.237-3.375-1.3-1.111-.062-2.213-.052-3.323-.052-1.111 0-2.213-.01-3.322.053-1.29.062-2.433.356-3.376 1.299-.944.944-1.236 2.086-1.299 3.375-.062 1.112-.052 2.213-.052 3.323 0 1.11-.01 2.213.052 3.323.063 1.289.357 2.432 1.3 3.375.944.944 2.086 1.236 3.375 1.299 1.111.062 2.213.052 3.322.052 1.112 0 2.214.01 3.323-.052 1.29-.063 2.433-.357 3.375-1.299.945-.945 1.237-2.086 1.3-3.375.064-1.11.052-2.212.052-3.323zm-8.052 4.13a4.125 4.125 0 01-4.13-4.13 4.125 4.125 0 014.13-4.13 4.125 4.125 0 014.13 4.13 4.125 4.125 0 01-4.13 4.13zm4.3-7.465a.963.963 0 110-1.93.964.964 0 110 1.93z" fill="#fff" fill-opacity=".8"/><defs><linearGradient id="paint0_linear_1_466" x1="16.5" y1="0" x2="16.5" y2="32.2" gradientUnits="userSpaceOnUse"><stop stop-color="#FEFEFF" stop-opacity=".29"/><stop offset="1" stop-color="#fff" stop-opacity=".4"/></linearGradient><linearGradient id="paint1_linear_1_466" x1="-1.144" y1="2.159" x2="35.902" y2="6.788" gradientUnits="userSpaceOnUse"><stop stop-color="#fff" stop-opacity=".08"/><stop offset="1" stop-color="#fff" stop-opacity=".07"/></linearGradient></defs></svg>