<svg width="33" height="33" fill="none" xmlns="http://www.w3.org/2000/svg"><circle cx="16.3" cy="16.1" r="15.6" fill="url(#paint0_linear_1_463)" fill-opacity=".05" stroke="url(#paint1_linear_1_463)"/><path d="M24.774 10.957a6.967 6.967 0 01-2 .537A3.465 3.465 0 0024.3 9.58a6.858 6.858 0 01-2.203.84 3.465 3.465 0 00-2.537-1.1 3.472 3.472 0 00-3.473 3.475c0 .269.033.538.086.796a9.87 9.87 0 01-7.161-3.635 3.449 3.449 0 00-.473 1.753c0 1.206.613 2.27 1.548 2.894a3.502 3.502 0 01-1.57-.441v.042a3.474 3.474 0 002.784 3.41 3.68 3.68 0 01-.915.118 4.68 4.68 0 01-.655-.053 3.48 3.48 0 003.246 2.41 6.96 6.96 0 01-4.312 1.484c-.29 0-.56-.01-.839-.043a9.834 9.834 0 005.335 1.558c6.387 0 9.882-5.291 9.882-9.884 0-.15 0-.301-.01-.452a7.48 7.48 0 001.74-1.796z" fill="#fff" fill-opacity=".8"/><defs><linearGradient id="paint0_linear_1_463" x1="16.3" y1="0" x2="16.3" y2="32.2" gradientUnits="userSpaceOnUse"><stop stop-color="#FEFEFF" stop-opacity=".29"/><stop offset="1" stop-color="#fff" stop-opacity=".4"/></linearGradient><linearGradient id="paint1_linear_1_463" x1="-1.344" y1="2.159" x2="35.702" y2="6.788" gradientUnits="userSpaceOnUse"><stop stop-color="#fff" stop-opacity=".08"/><stop offset="1" stop-color="#fff" stop-opacity=".07"/></linearGradient></defs></svg>