<svg width="512" height="512" viewBox="0 0 256 256" xmlns="http://www.w3.org/2000/svg"><g fill="none"><rect width="256" height="256" fill="#F03C2E" rx="60"/><g clip-path="url(#a)"><path fill="#fff" d="M224.225 119.094l-87.319-87.319a12.869 12.869 0 00-14.035-2.793 12.869 12.869 0 00-4.177 2.793L100.569 49.9l23 23c5.35-1.875 11.475-.594 15.737 3.669a15.313 15.313 0 013.631 15.831l22.169 22.169c5.363-1.85 11.55-.657 15.831 3.637a15.322 15.322 0 013.321 16.706 15.333 15.333 0 01-20.029 8.293c-1.86-.771-3.55-1.9-4.973-3.324-4.5-4.5-5.612-11.125-3.337-16.669l-20.675-20.675v54.407a15.605 15.605 0 014.062 2.9 15.326 15.326 0 01-21.675 21.675 15.318 15.318 0 01-3.326-16.704 15.297 15.297 0 013.326-4.971c1.481-1.475 3.125-2.594 5.019-3.344v-54.913a15.216 15.216 0 01-5.019-3.343 15.315 15.315 0 01-3.3-16.757L91.644 58.813l-59.875 59.812a12.88 12.88 0 00-2.795 14.04 12.88 12.88 0 002.795 4.179l87.325 87.312a12.884 12.884 0 004.177 2.793 12.888 12.888 0 009.858 0 12.884 12.884 0 004.177-2.793l86.919-86.781a12.882 12.882 0 003.776-9.109 12.876 12.876 0 00-3.776-9.11"/></g><defs><clipPath id="a"><path fill="#fff" d="M28 28h200v200H28z"/></clipPath></defs></g></svg>