<svg width="28" height="21" fill="none" xmlns="http://www.w3.org/2000/svg"><path d="M5.057 1.974C6.633 1.134 8.383.56 10.182.506l.239.289C8.83 1.257 7.279 1.866 5.848 2.7c-.592.362-1.194.723-1.707 1.191 1.291-.64 2.611-1.249 4.012-1.614.755-.211 1.519-.406 2.3-.495 1.872-.26 3.776-.376 5.659-.167a20.71 20.71 0 013.96.848 21.77 21.77 0 013.273 1.39c-.28-.28-.611-.502-.94-.72-1.51-1-3.198-1.713-4.929-2.245.156-.144.258-.428.515-.383 2.272.144 4.455 1.026 6.301 2.327.132.085.282.167.339.323 1.145 2.28 1.993 4.702 2.576 7.18.482 2.084.76 4.217.791 6.356.005.107.005.222-.071.309-1.225 1.698-3.16 2.798-5.192 3.247-.682.15-1.376.235-2.073.253a94.762 94.762 0 01-1.58-1.938c.727-.188 1.416-.495 2.075-.849.864-.502 1.677-1.136 2.248-1.961-.819.52-1.674.988-2.586 1.33a21.96 21.96 0 01-1.775.645c-1.03.326-2.102.503-3.175.629-1.237.133-2.488.093-3.723-.046-1.283-.137-2.54-.458-3.763-.857-1.01-.365-2.034-.724-2.945-1.299-.233-.146-.466-.292-.707-.427.361.553.868.992 1.38 1.402.835.631 1.797 1.088 2.802 1.388-.453.57-.913 1.136-1.38 1.694-.11.113-.181.326-.377.283a11.042 11.042 0 01-2.846-.49C3.042 19.57 1.834 18.908.884 17.96c-.332-.326-.657-.675-.883-1.082-.024-3.55.725-7.072 1.926-10.405.43-1.175.914-2.335 1.506-3.438.492-.417 1.061-.744 1.624-1.06zm4.18 7.424c-.85.095-1.592.69-1.926 1.461-.539 1.155-.17 2.672.9 3.398a2.29 2.29 0 001.882.327c.698-.17 1.272-.697 1.58-1.331.52-1.046.312-2.412-.541-3.225-.502-.464-1.21-.726-1.896-.63zm8.605.02c-1.187.22-2.04 1.386-2.025 2.56-.014.928.451 1.87 1.26 2.356.538.34 1.227.412 1.833.231.674-.186 1.224-.705 1.52-1.325.54-1.088.268-2.53-.674-3.315a2.333 2.333 0 00-1.914-.507z" fill="#DCDAE7"/></svg>