<svg width="172" height="37" fill="none" xmlns="http://www.w3.org/2000/svg"><path d="M57.634 9.084v6.09h10.878v6.247H57.634v6.438h12.678v6.227H51.295V2.916h19.017v6.162l-12.678.006zm23.517 12.878l-7.592-11.08h6.927l4.167 6.188 4.148-6.187h6.926l-7.615 11.056 8.18 12.143h-6.943l-4.718-7.057-4.695 7.057h-6.943l8.158-12.12zM99.6 2.18h6.026v31.906H99.6V2.18zm11.113 2.533c0-.666.2-1.317.574-1.87a3.397 3.397 0 011.528-1.24 3.445 3.445 0 011.968-.191c.66.13 1.267.45 1.743.921a3.345 3.345 0 01.739 3.668 3.378 3.378 0 01-1.255 1.51 3.433 3.433 0 01-4.299-.419 3.348 3.348 0 01-.998-2.38zm.393 6.17h6.025v23.203h-6.025V10.883zm32.83 10.653v12.55h-6.027v-12.55c0-4.06-1.516-5.472-4.539-5.472-2.974 0-4.735 1.998-4.735 5.472v12.55h-6.026V10.883h5.635l.236 2.3c1.702-1.817 4.044-2.881 6.908-2.881 4.498 0 8.548 2.184 8.548 11.234zm6.437 4.776v-9.629h-3.131V11.27h.743c1.722 0 2.779-1.122 2.779-2.94V6.243h5.635v4.64h4.696v5.801h-4.696v9.629c0 1.547.488 2.456 1.995 2.456.704 0 1.663-.193 2.696-.483v5.496c-1.195.388-3.424.696-4.735.696-3.928-.005-5.982-2.808-5.982-8.165z" fill="#fff"/><path d="M163.912 31.088a3.959 3.959 0 01.675-2.224 4.034 4.034 0 011.812-1.478 4.09 4.09 0 012.338-.233 4.06 4.06 0 012.074 1.091 3.98 3.98 0 011.11 2.046c.157.776.078 1.58-.228 2.311a4.004 4.004 0 01-1.489 1.796 4.078 4.078 0 01-5.103-.491 3.975 3.975 0 01-1.189-2.818z" fill="#6B5DA8"/><path d="M0 0l15.85 10.636-7.5 5.286L0 10.313V0z" fill="#51B0E3"/><path d="M40.504 0L24.655 10.636l7.5 5.286 8.35-5.609V0z" fill="#DC67A2"/><path d="M0 26.752V37l20.28-13.47L40.505 37v-9.99L20.252 13.344 0 26.752z" fill="#FCB22E"/></svg>