<svg width="131" height="29" fill="none" xmlns="http://www.w3.org/2000/svg"><path d="M43.615 7.375v4.608h8.232v4.727h-8.232v4.872h9.594v4.713H38.818V2.707h14.39V7.37l-9.593.005zm17.797 9.745l-5.746-8.384h5.242l3.154 4.681L67.2 8.736h5.24l-5.761 8.366 6.189 9.19h-5.254l-3.57-5.34-3.553 5.34h-5.254l6.174-9.172zM75.373 2.15h4.56v24.145h-4.56V2.15zm8.41 1.916c0-.503.151-.996.434-1.415a2.57 2.57 0 011.157-.938 2.606 2.606 0 012.808.553 2.52 2.52 0 01.559 2.776 2.553 2.553 0 01-.95 1.142 2.599 2.599 0 01-3.253-.317 2.533 2.533 0 01-.755-1.8zm.297 4.67h4.56v17.559h-4.56V8.735zm24.845 8.061v9.498h-4.561v-9.498c0-3.072-1.148-4.14-3.436-4.14-2.25 0-3.583 1.512-3.583 4.14v9.498h-4.56V8.735h4.264l.179 1.741c1.288-1.375 3.06-2.18 5.228-2.18 3.403 0 6.469 1.653 6.469 8.501zm4.871 3.615v-7.287h-2.369V9.028h.562c1.303 0 2.103-.85 2.103-2.224v-1.58h4.264v3.512h3.553v4.39h-3.553v7.286c0 1.17.369 1.859 1.509 1.859.533 0 1.259-.147 2.041-.366v4.159c-.904.294-2.591.527-3.583.527-2.973-.004-4.527-2.125-4.527-6.18z" fill="#fff"/><path d="M124.042 24.026a2.991 2.991 0 01.51-1.683 3.054 3.054 0 011.372-1.118 3.094 3.094 0 011.769-.177c.594.116 1.14.403 1.569.826.429.422.722.961.841 1.548a2.986 2.986 0 01-.173 1.75 3.027 3.027 0 01-1.127 1.358 3.083 3.083 0 01-1.701.51 3.08 3.08 0 01-2.161-.882 3.006 3.006 0 01-.899-2.132z" fill="#6B5DA8"/><path d="M0 .5l11.994 8.05-5.676 4L0 8.304V.5z" fill="#51B0E3"/><path d="M30.652.5L18.658 8.55l5.675 4 6.319-4.245V.5z" fill="#DC67A2"/><path d="M0 20.744V28.5l15.348-10.194L30.652 28.5v-7.56L15.326 10.598 0 20.744z" fill="#FCB22E"/></svg>