<svg width="80" height="80" fill="none" xmlns="http://www.w3.org/2000/svg"><circle cx="40" cy="40" r="40" fill="#35AFBF"/><path d="M25 25.877h3.633v9.082H25v-9.082zm27.367 18.164H56v9.082h-3.633v-9.082zm-13.683-9.082h3.632v9.082h-3.632v-9.082zm-10.959 7.266h9.142v-5.45h-9.142A2.728 2.728 0 0025 39.5a2.728 2.728 0 002.725 2.725zm25.55-5.45h-9.142v5.45h9.142A2.728 2.728 0 0056 39.5a2.728 2.728 0 00-2.725-2.725zm0-9.082H30.45v5.45h22.826A2.728 2.728 0 0056 30.418a2.728 2.728 0 00-2.725-2.725zm-25.55 23.614H50.55v-5.45H27.725A2.728 2.728 0 0025 48.582a2.728 2.728 0 002.725 2.725z" fill="#fff"/></svg>