<svg width="83" height="83" fill="none" xmlns="http://www.w3.org/2000/svg"><circle cx="41.5" cy="41.5" r="41.5" fill="#35AFBF"/><path d="M35.348 24h-6.221A5.133 5.133 0 0024 29.127v6.22c0 2.828 2.3 5.128 5.127 5.128h6.22c2.828 0 5.128-2.3 5.128-5.127v-6.221c0-2.827-2.3-5.127-5.127-5.127zm18.525 18.525h-6.22a5.133 5.133 0 00-5.128 5.127v6.221c0 2.827 2.3 5.127 5.127 5.127h6.221C56.7 59 59 56.7 59 53.873v-6.22c0-2.828-2.3-5.128-5.127-5.128z" fill="#fff"/><path d="M53.873 24h-6.22a5.133 5.133 0 00-5.128 5.127v6.22c0 3.959-3.22 7.178-7.177 7.178h-6.221A5.133 5.133 0 0024 47.652v6.221C24 56.7 26.3 59 29.127 59h6.22c2.828 0 5.128-2.3 5.128-5.127v-6.22c0-3.959 3.22-7.178 7.177-7.178h6.221c2.827 0 5.127-2.3 5.127-5.127v-6.221C59 26.3 56.7 24 53.873 24z" fill="#fff"/></svg>