<svg width="74" height="74" fill="none" xmlns="http://www.w3.org/2000/svg"><rect width="74" height="74" rx="37" fill="url(#paint0_linear_1_266)"/><g clip-path="url(#clip0_1_266)" fill="#fff"><path d="M41.686 51.722a1.76 1.76 0 001.757-1.758 1.76 1.76 0 00-1.757-1.757c-.763 0-1.407.492-1.65 1.172h-2.45v-3.515h2.45c.243.68.887 1.172 1.65 1.172a1.76 1.76 0 001.757-1.758 1.76 1.76 0 00-1.757-1.757c-.763 0-1.407.492-1.65 1.172h-2.45v-3.515h2.45c.243.68.887 1.172 1.65 1.172a1.76 1.76 0 001.757-1.757 1.76 1.76 0 00-1.757-1.758c-.763 0-1.407.492-1.65 1.172h-2.45v-1.172h-1.172v-2.45a1.755 1.755 0 001.172-1.65 1.76 1.76 0 00-1.758-1.757 1.76 1.76 0 00-1.757 1.757c0 .763.492 1.407 1.172 1.65v2.45h-3.515v-2.45a1.755 1.755 0 001.172-1.65 1.76 1.76 0 00-1.757-1.757 1.76 1.76 0 00-1.758 1.757c0 .763.492 1.407 1.172 1.65v2.45h-3.515v-2.45a1.755 1.755 0 001.172-1.65 1.76 1.76 0 00-1.757-1.757 1.76 1.76 0 00-1.758 1.757c0 .763.492 1.407 1.172 1.65v2.45H24.7v1.172h-2.451a1.755 1.755 0 00-1.65-1.172 1.76 1.76 0 00-1.757 1.758A1.76 1.76 0 0020.6 42.35c.763 0 1.407-.492 1.65-1.172h2.45v3.515h-2.45a1.755 1.755 0 00-1.65-1.172 1.76 1.76 0 00-1.757 1.758 1.76 1.76 0 001.757 1.757c.763 0 1.407-.492 1.65-1.172h2.45v3.515h-2.45a1.755 1.755 0 00-1.65-1.172 1.76 1.76 0 00-1.757 1.757 1.76 1.76 0 001.757 1.758c.763 0 1.407-.492 1.65-1.172h2.45v1.172h1.172v2.45a1.755 1.755 0 00-1.171 1.65 1.76 1.76 0 001.757 1.757 1.76 1.76 0 001.757-1.757c0-.763-.491-1.407-1.172-1.65v-2.45h3.515v2.45a1.755 1.755 0 00-1.172 1.65 1.76 1.76 0 001.758 1.757 1.76 1.76 0 001.757-1.757c0-.763-.492-1.407-1.172-1.65v-2.45h3.515v2.45a1.755 1.755 0 00-1.172 1.65 1.76 1.76 0 001.758 1.757 1.76 1.76 0 001.757-1.757c0-.763-.492-1.407-1.172-1.65v-2.45h1.172V50.55h2.45c.243.68.887 1.172 1.65 1.172zm0-2.343a.586.586 0 110 1.172.586.586 0 010-1.172zm0-4.686a.586.586 0 110 1.172.586.586 0 010-1.172zm0-4.686a.586.586 0 110 1.172.586.586 0 010-1.172zm-21.087 1.171a.586.586 0 110-1.172.586.586 0 010 1.172zm0 4.686a.586.586 0 110-1.172.586.586 0 010 1.172zm0 4.686a.586.586 0 110-1.172.586.586 0 010 1.172zm15.23-16.4a.586.586 0 11-.002 1.172.586.586 0 01.002-1.173zm-4.686 0a.586.586 0 11-.002 1.172.586.586 0 01.002-1.173zm-4.686 0a.586.586 0 11-.002 1.172.586.586 0 01.002-1.173zm0 22.258a.586.586 0 110-1.172.586.586 0 010 1.172zm4.686 0a.586.586 0 110-1.172.586.586 0 010 1.172zm4.685 0a.586.586 0 110-1.172.586.586 0 010 1.172zm.586-5.858H25.871V40.007h10.543V50.55z"/><path d="M52.519 30.634v.001a9.29 9.29 0 00-1.004-2.416l1.868-1.868-3.314-3.313-1.868 1.869a9.266 9.266 0 00-2.415-1.005v-2.639H41.1v2.639a9.285 9.285 0 00-2.415 1.004l-1.869-1.869-3.313 3.313 1.868 1.869a9.29 9.29 0 00-1.004 2.415h-2.053v1.172h2.998l.095-.47a8.12 8.12 0 011.196-2.878l.264-.4-1.708-1.708 1.657-1.656 1.709 1.709.398-.265a8.107 8.107 0 012.88-1.196l.469-.095v-2.412h2.343v2.412l.469.096a8.107 8.107 0 012.879 1.196l.398.264 1.709-1.709 1.657 1.657-1.708 1.709.264.398a8.117 8.117 0 011.196 2.88l.095.468h2.412v2.343h-2.412l-.095.47a8.11 8.11 0 01-1.196 2.878l-.264.4 1.708 1.708-1.657 1.657-1.709-1.709-.398.265a8.105 8.105 0 01-2.88 1.196l-.468.095v2.998h1.17v-2.053a9.252 9.252 0 002.416-1.004l1.868 1.868 3.314-3.314-1.868-1.868a9.29 9.29 0 001.004-2.416h2.639v-4.686h-2.639z"/><path d="M43.443 37.664v1.171a5.864 5.864 0 005.858-5.857 5.864 5.864 0 00-5.858-5.858 5.864 5.864 0 00-5.857 5.858h1.171a4.691 4.691 0 014.686-4.686 4.691 4.691 0 014.686 4.686 4.691 4.691 0 01-4.686 4.686zm-8.2 3.514h-8.2v1.172h8.2v-1.172zm0 7.029H34.07v1.172h1.172v-1.172zm-2.343 0h-5.857v1.172H32.9v-1.172zm7.498 7.86l.233 1.148a18.102 18.102 0 0014.163-14.163l-1.149-.233a16.927 16.927 0 01-13.247 13.248zm-6.796-33.292l-.233-1.148A18.102 18.102 0 0019.206 35.79l1.148.233a16.93 16.93 0 0113.248-13.248z"/></g><defs><linearGradient id="paint0_linear_1_266" x1="37" y1="0" x2="37" y2="74" gradientUnits="userSpaceOnUse"><stop stop-color="#92EFC3"/><stop offset="1" stop-color="#2F8F5B"/></linearGradient><clipPath id="clip0_1_266"><path fill="#fff" transform="translate(18.842 21.263)" d="M0 0h36.316v36.316H0z"/></clipPath></defs></svg>