<svg width="24" height="31" fill="none" xmlns="http://www.w3.org/2000/svg"><path d="M16.858 17.735H6.538a.853.853 0 00-.63.25.777.777 0 00-.25.59.852.852 0 00.88.883h10.32c.244 0 .45-.084.616-.25a.835.835 0 00.263-.634.756.756 0 00-.263-.588.835.835 0 00-.616-.25zm0 4.755H6.538a.852.852 0 00-.88.883c0 .236.084.437.25.604a.85.85 0 00.63.25h10.32c.244 0 .45-.083.616-.25a.802.802 0 00.263-.604.835.835 0 00-.263-.633.835.835 0 00-.616-.25zM4.47 30.836h14.747c1.466 0 2.565-.372 3.298-1.118.743-.746 1.114-1.86 1.114-3.342V13.731c0-.618-.034-1.143-.102-1.575a3.373 3.373 0 00-.41-1.177c-.196-.354-.49-.731-.88-1.134l-7.447-7.61c-.557-.57-1.104-.942-1.642-1.119-.537-.186-1.221-.28-2.052-.28H4.471c-1.456 0-2.555.378-3.298 1.134C.43 2.716.059 3.83.059 5.31v21.065c0 1.482.371 2.596 1.114 3.342.743.745 1.842 1.118 3.298 1.118zm.161-2.487c-.693 0-1.211-.182-1.553-.545-.342-.353-.514-.868-.514-1.546V5.43c0-.667.172-1.177.514-1.53.351-.364.874-.545 1.568-.545h6.025v7.83c0 .943.23 1.645.689 2.106.469.461 1.168.692 2.096.692h7.681v12.276c0 .678-.176 1.193-.528 1.546-.351.363-.874.545-1.568.545H4.632zm9.089-16.634c-.284 0-.489-.064-.616-.192-.127-.127-.19-.328-.19-.603V3.75l7.828 7.964H13.72z" fill="#E7E7E7"/></svg>