<svg width="32" height="31" fill="none" xmlns="http://www.w3.org/2000/svg"><path d="M0 16.216C0 7.722 6.954.836 15.53.836s15.529 6.886 15.529 15.38c0 6.793-4.444 12.556-10.611 14.592-.788.151-1.067-.329-1.067-.738l.005-.856c.005-.793.013-1.99.013-3.364 0-1.435-.496-2.371-1.053-2.849 3.458-.38 7.09-1.681 7.09-7.588 0-1.68-.602-3.051-1.598-4.128.162-.388.694-1.952-.152-4.07 0 0-1.302-.414-4.266 1.576a15.052 15.052 0 00-3.89-.517c-1.32.006-2.649.176-3.887.517C8.675 6.801 7.37 7.215 7.37 7.215c-.843 2.118-.312 3.682-.15 4.07-.994 1.077-1.6 2.449-1.6 4.128 0 5.893 3.625 7.212 7.074 7.6-.444.385-.846 1.063-.985 2.057-.887.393-3.134 1.073-4.52-1.278 0 0-.82-1.477-2.38-1.585 0 0-1.515-.02-.106.935 0 0 1.018.472 1.724 2.25 0 0 .912 2.745 5.232 1.815.004.703.01 1.383.014 1.916.004.441.007.781.007.947 0 .406-.285.882-1.061.74C4.45 28.776 0 23.011 0 16.216z" fill="#E7E7E7"/><path d="M5.56 22.788c.11.052.23.03.264-.047.039-.077-.025-.183-.137-.233-.112-.053-.233-.03-.266.048-.036.077.027.182.139.232zm.707.559c.098.108.242.14.315.071.077-.069.057-.212-.043-.32-.101-.108-.24-.14-.317-.072-.074.07-.055.213.045.32zm.491.804c.096.138.25.2.345.134.096-.068.096-.232.002-.372-.097-.136-.25-.195-.345-.13-.096.067-.096.231-.002.368zm.828 1.079c.132.126.312.151.396.058.09-.092.05-.27-.084-.394-.133-.126-.314-.153-.4-.06-.084.094-.047.27.088.395zm1.148.521c.175.052.348-.003.386-.124.036-.123-.078-.264-.253-.316-.176-.055-.35.002-.386.124-.035.122.079.264.253.316zm1.353.255c.183-.003.331-.108.327-.235 0-.127-.15-.23-.334-.226-.184.004-.329.108-.329.237.002.125.151.228.336.224zm1.311.002c.182-.034.31-.162.287-.286-.023-.126-.186-.201-.369-.17-.178.034-.308.161-.286.288.023.123.189.2.368.168z" fill="#E7E7E7"/></svg>