<svg width="54" height="45" viewBox="0 0 55 39" fill="none" xmlns="http://www.w3.org/2000/svg"><path d="M10.417 2.86C13.457 1.263 16.833.171 20.3.07l.461.549c-3.067.878-6.06 2.036-8.82 3.62-1.141.687-2.301 1.373-3.29 2.263 2.49-1.216 5.034-2.373 7.737-3.066 1.456-.402 2.929-.772 4.435-.94 3.61-.497 7.282-.716 10.913-.319 2.594.29 5.153.83 7.638 1.611a42.353 42.353 0 016.313 2.642c-.54-.534-1.18-.954-1.814-1.369-2.913-1.9-6.168-3.254-9.505-4.265.3-.274.498-.813.993-.728 4.38.273 8.592 1.95 12.152 4.422.255.161.544.316.653.614 2.208 4.33 3.845 8.933 4.969 13.643.93 3.959 1.465 8.01 1.525 12.074.01.204.01.423-.137.587-2.362 3.227-6.094 5.317-10.014 6.17a21.267 21.267 0 01-3.998.48 180.389 180.389 0 01-3.047-3.68c1.403-.359 2.731-.941 4.003-1.614 1.665-.954 3.233-2.16 4.335-3.727-1.579.99-3.229 1.879-4.987 2.528a42.743 42.743 0 01-3.423 1.226c-1.988.62-4.055.955-6.123 1.194-2.387.252-4.799.178-7.18-.088-2.475-.26-4.898-.87-7.259-1.628-1.947-.692-3.92-1.375-5.679-2.467-.45-.278-.898-.556-1.362-.81.695 1.049 1.672 1.882 2.659 2.662 1.612 1.2 3.468 2.068 5.404 2.637a152.977 152.977 0 01-2.661 3.219c-.211.214-.349.62-.726.538a21.586 21.586 0 01-5.489-.931c-2.445-.827-4.775-2.083-6.608-3.887-.64-.619-1.266-1.281-1.703-2.055-.046-6.743 1.399-13.438 3.714-19.77.83-2.232 1.764-4.435 2.906-6.532.949-.791 2.046-1.412 3.13-2.014zm8.061 14.105c-1.64.18-3.07 1.31-3.714 2.776-1.039 2.194-.328 5.076 1.735 6.457 1.043.703 2.404.957 3.63.62 1.347-.323 2.453-1.324 3.049-2.529 1.002-1.986.601-4.582-1.045-6.127-.967-.881-2.333-1.379-3.655-1.197zm16.597.039c-2.29.418-3.935 2.631-3.905 4.865-.028 1.761.869 3.552 2.43 4.474 1.037.646 2.365.783 3.535.44 1.3-.354 2.36-1.341 2.932-2.518 1.04-2.068.516-4.807-1.302-6.298a4.524 4.524 0 00-1.735-.884 4.589 4.589 0 00-1.955-.08z" fill="#DCDAE7"/></svg>