<svg width="195" height="42" fill="none" xmlns="http://www.w3.org/2000/svg"><path d="M65.302 10.548v6.798h12.262v6.974H65.302v7.186h14.29v6.951H58.156V3.662h21.436v6.879l-14.29.007zm26.509 14.376l-8.559-12.368h7.809l4.697 6.906 4.676-6.906h7.807l-8.584 12.342 9.22 13.555h-7.826l-5.318-7.878-5.291 7.878h-7.828l9.197-13.53zM112.607 2.84h6.792v35.617h-6.792V2.841zm12.527 2.828c0-.743.225-1.47.647-2.087a3.818 3.818 0 011.722-1.384 3.918 3.918 0 012.218-.214 3.866 3.866 0 011.966 1.029 3.737 3.737 0 011.05 1.923 3.688 3.688 0 01-.218 2.171 3.78 3.78 0 01-1.414 1.686 3.897 3.897 0 01-2.133.633 3.88 3.88 0 01-2.713-1.1 3.716 3.716 0 01-1.125-2.657zm.442 6.888h6.792v25.901h-6.792V12.556zm37.008 11.892v14.01h-6.794v-14.01c0-4.532-1.71-6.109-5.117-6.109-3.353 0-5.338 2.231-5.338 6.109v14.01h-6.792V12.555h6.352l.266 2.567c1.918-2.028 4.558-3.216 7.787-3.216 5.07 0 9.636 2.439 9.636 12.54zm7.255 5.332V19.03h-3.529v-6.043h.838c1.941 0 3.132-1.253 3.132-3.281V7.375h6.351v5.18h5.294v6.476h-5.294v10.748c0 1.727.551 2.743 2.249 2.743.794 0 1.875-.216 3.039-.54v6.135c-1.346.433-3.859.777-5.337.777-4.427-.005-6.743-3.134-6.743-9.115z" fill="#fff"/><path d="M185.101 35.111a4.387 4.387 0 01.761-2.483 4.54 4.54 0 012.042-1.65 4.65 4.65 0 012.635-.26 4.599 4.599 0 012.338 1.218 4.433 4.433 0 011.252 2.284 4.371 4.371 0 01-.257 2.58 4.48 4.48 0 01-1.679 2.005 4.63 4.63 0 01-2.534.753 4.611 4.611 0 01-3.218-1.302 4.416 4.416 0 01-1.34-3.145z" fill="#6B5DA8"/><path d="M.335.407l17.866 11.874-8.454 5.9L.335 11.92V.407z" fill="#51B0E3"/><path d="M45.992.407L28.127 12.281l8.454 5.9 9.411-6.261V.407z" fill="#DC67A2"/><path d="M.335 30.27v11.44l22.861-15.037 22.796 15.038V30.558L23.164 15.303.335 30.27z" fill="#FCB22E"/></svg>