<svg width="45" height="43" viewBox="0 0 43 42" fill="none" xmlns="http://www.w3.org/2000/svg"><path d="M.218 21.578C.218 9.969 9.72.558 21.44.558c11.721 0 21.224 9.411 21.224 21.02 0 9.284-6.074 17.16-14.502 19.942-1.076.206-1.458-.45-1.458-1.008 0-.23.003-.632.006-1.17.008-1.084.019-2.719.019-4.599 0-1.96-.679-3.24-1.44-3.892 4.726-.52 9.691-2.298 9.691-10.37 0-2.296-.823-4.17-2.184-5.643.22-.53.947-2.667-.208-5.562 0 0-1.78-.565-5.83 2.154a20.57 20.57 0 00-5.318-.707 20.519 20.519 0 00-5.312.707c-4.056-2.72-5.838-2.154-5.838-2.154-1.152 2.895-.426 5.033-.206 5.562C8.729 16.31 7.9 18.185 7.9 20.48c0 8.054 4.955 9.856 9.67 10.388-.608.525-1.158 1.452-1.348 2.81-1.211.537-4.283 1.466-6.176-1.747 0 0-1.122-2.018-3.254-2.166 0 0-2.07-.027-.145 1.278 0 0 1.391.646 2.357 3.075 0 0 1.245 3.752 7.15 2.48.005.96.013 1.891.02 2.62.005.602.009 1.066.009 1.294 0 .555-.39 1.205-1.45 1.01C6.299 38.744.218 30.866.218 21.579z" fill="#E7E7E7"/><path d="M7.816 30.56c.15.071.315.04.361-.065.053-.105-.034-.25-.187-.318-.153-.072-.318-.042-.363.066-.05.105.036.248.189.316zm.967.763c.134.147.33.19.43.098.106-.095.079-.29-.06-.439-.137-.147-.328-.19-.431-.097-.102.095-.077.291.061.438zm.671 1.1c.13.187.341.271.47.182.133-.092.133-.317.004-.508-.133-.186-.34-.267-.471-.177-.132.09-.132.315-.003.503zm1.131 1.472c.18.174.426.208.542.081.123-.126.067-.369-.116-.539-.181-.172-.428-.208-.545-.08-.116.127-.065.368.12.538zm1.57.715c.238.07.475-.006.526-.17.05-.169-.106-.36-.345-.433-.24-.075-.478.003-.527.17-.049.166.107.36.346.432zm1.848.347c.25-.003.453-.147.447-.321 0-.173-.205-.313-.456-.308-.252.004-.45.147-.45.323.003.17.207.311.459.306zm1.792.003c.248-.047.423-.221.392-.391-.031-.173-.254-.275-.503-.231-.244.045-.422.219-.392.393.032.168.258.273.503.228z" fill="#E7E7E7"/></svg>