<svg width="126" height="116" fill="none" xmlns="http://www.w3.org/2000/svg"><rect y="28.11" width="28.11" height="126" rx="14.055" transform="rotate(-90 0 28.11)" fill="#466FFF"/><path d="M14.052 28.104C6.292 28.104 0 21.812 0 14.052S6.291 0 14.052 0h49.175c7.76 0 14.052 6.291 14.052 14.052 0 7.76-6.291 14.052-14.052 14.052H14.052z" fill="#fff"/><path d="M47.683 15c0-8.284 6.715-15 15-15h1.24c8.284 0 15 6.716 15 15v86c0 8.284-6.716 15-15 15h-1.24c-8.285 0-15-6.716-15-15V15z" fill="#466FFF"/><path d="M28.859 116c-7.766 0-14.06-6.295-14.06-14.061 0-7.765 6.294-14.06 14.06-14.06h29.427c7.765 0 14.06 6.295 14.06 14.06 0 7.766-6.295 14.061-14.06 14.061H28.859z" fill="#466FFF"/></svg>