<svg width="512" height="512" viewBox="0 0 256 256" xmlns="http://www.w3.org/2000/svg"><g fill="none"><rect width="256" height="256" fill="#242938" rx="60"/><path fill="#fff" d="M128.222 18l97.221 55v110l-97.221 55L31 183V73l97.222-55z"/><path fill="#8ED6FB" d="M208.082 179.205l-76.652 43.358v-33.77l47.758-26.271 28.894 16.683zm5.243-4.748V83.78l-28.05 16.188v58.282l28.05 16.207zM48.05 179.205l76.652 43.358v-33.77l-47.759-26.271-28.893 16.683zm-5.243-4.748V83.78l28.05 16.188v58.282l-28.05 16.207zm3.281-96.544l78.614-44.476v32.651L74.34 93.79l-.385.22-27.867-16.097zm163.955 0L131.43 33.437v32.651l50.362 27.702.385.22 27.866-16.097z"/><path fill="#1C78C0" d="M124.702 181.111l-47.117-25.905v-51.333l47.117 27.207v50.031zm6.728 0l47.117-25.905v-51.333L131.43 131.08v50.031zM80.775 97.933l47.3-26.015 47.3 26.015-47.3 27.317-47.3-27.317z"/></g></svg>