<svg width="35" height="35" fill="none" xmlns="http://www.w3.org/2000/svg"><path fill-rule="evenodd" clip-rule="evenodd" d="M17.5 0C7.835 0 0 7.835 0 17.5S7.835 35 17.5 35 35 27.165 35 17.5 27.165 0 17.5 0zm-3.848 8.223c.996-.045 1.314-.056 3.849-.056h-.003c2.535 0 2.852.01 3.848.056.994.045 1.672.203 2.267.434a4.56 4.56 0 011.653 1.076c.52.519.838 1.04 1.077 1.653.23.594.387 1.272.434 2.266.045.995.056 1.313.056 3.848s-.011 2.852-.056 3.848c-.047.993-.204 1.671-.434 2.265a4.582 4.582 0 01-1.077 1.653 4.566 4.566 0 01-1.652 1.078c-.594.23-1.273.388-2.267.433-.995.045-1.312.056-3.847.056s-2.853-.01-3.848-.056c-.994-.045-1.672-.203-2.266-.434a4.57 4.57 0 01-1.653-1.077 4.573 4.573 0 01-1.076-1.653c-.231-.594-.388-1.272-.434-2.265-.045-.996-.056-1.313-.056-3.848s.011-2.853.056-3.849c.045-.993.202-1.671.433-2.265a4.582 4.582 0 011.078-1.653 4.57 4.57 0 011.653-1.076c.593-.231 1.272-.389 2.265-.434z" fill="#fff"/><path fill-rule="evenodd" clip-rule="evenodd" d="M16.664 9.849h.837c2.492 0 2.787.009 3.771.053.91.042 1.404.194 1.733.322.436.169.746.371 1.073.698.327.326.529.638.698 1.073.128.329.28.823.322 1.733.044.984.054 1.28.054 3.77s-.01 2.786-.054 3.77c-.042.91-.194 1.404-.322 1.733a2.887 2.887 0 01-.698 1.072 2.886 2.886 0 01-1.073.698c-.328.128-.823.28-1.733.322-.983.044-1.279.054-3.771.054s-2.788-.01-3.772-.054c-.91-.042-1.403-.194-1.733-.322a2.891 2.891 0 01-1.073-.698A2.893 2.893 0 0110.225 23c-.128-.329-.28-.823-.322-1.733-.045-.983-.054-1.279-.054-3.771 0-2.493.01-2.787.054-3.77.042-.91.194-1.405.322-1.734a2.89 2.89 0 01.698-1.073 2.897 2.897 0 011.073-.698c.33-.129.823-.28 1.733-.322.862-.04 1.195-.05 2.935-.053v.003zm5.819 1.55a1.12 1.12 0 100 2.24 1.12 1.12 0 000-2.241zM12.708 17.5a4.793 4.793 0 119.585 0 4.793 4.793 0 01-9.585 0z" fill="#fff"/><path fill-rule="evenodd" clip-rule="evenodd" d="M17.501 14.389a3.111 3.111 0 110 6.222 3.111 3.111 0 010-6.222z" fill="#fff"/></svg>