<svg width="80" height="80" fill="none" xmlns="http://www.w3.org/2000/svg"><circle cx="40" cy="40" r="40" fill="#35AFBF"/><g clip-path="url(#clip0_206_21)" fill="#fff"><path d="M42.207 50.516v-2.268H24v2.278c0 2.062 1.667 3.767 3.73 3.767h16.312c-.157-.142-.307-.267-.45-.41a4.746 4.746 0 01-1.385-3.367zM36.89 36.763l2.643 1.814 2.652-1.814c.725-.494 1.302-1.61 1.302-2.489v-3.748l-3.948-1.952-3.947 1.947v3.753c0 .878.573 1.995 1.299 2.49zm.596-3.542a.498.498 0 01.704.003l.793.802 1.91-1.91a.498.498 0 11.704.705l-2.264 2.264a.5.5 0 01-.352.148.497.497 0 01-.353-.15l-1.146-1.157a.5.5 0 01.004-.705zm16.875-8.514h-.016c-1.462 0-2.679 1.222-2.679 2.685v4.57H57v-4.578a2.665 2.665 0 00-2.639-2.677z"/><path d="M31.643 24.707c-1.383 0-2.509 1.11-2.509 2.473l-.147 20.072h13.718c.279.011.5.241.498.521v2.743a3.768 3.768 0 003.74 3.777h.013a3.742 3.742 0 003.714-3.768V27.393c0-1.046.471-1.975 1.179-2.686H31.643zm2.954 5.503a.484.484 0 01.263-.447l4.458-2.19a.49.49 0 01.435 0l4.466 2.196c.167.086.27.26.264.447v4.058c0 1.208-.737 2.632-1.735 3.312l-2.925 2.006a.492.492 0 01-.556 0l-2.934-2.006c-.997-.68-1.736-2.104-1.736-3.312V30.21zm12.02 14.766H32.96a.498.498 0 110-.995h13.655a.498.498 0 110 .995zm0-2.631H32.96a.498.498 0 110-.996h13.655a.498.498 0 110 .996z"/></g><defs><clipPath id="clip0_206_21"><path fill="#fff" transform="translate(24 23)" d="M0 0h33v33H0z"/></clipPath></defs></svg>