<svg width="80" height="80" fill="none" xmlns="http://www.w3.org/2000/svg"><circle cx="40" cy="40" r="40" fill="#35AFBF"/><path d="M50.321 52.385c0 .37.3.668.668.668h5.343a.668.668 0 00.668-.668v-.546h-6.68v.546zm6.011-11.475h-5.343c-.369 0-.668.3-.668.669v.546H57v-.547a.668.668 0 00-.668-.667zm-19.368 4.25h12.143v-1.82H36.964v1.82zm13.964-16.392a1.821 1.821 0 00-1.821-1.822H30.893a1.821 1.821 0 00-1.822 1.822v3.643h5.152a2.744 2.744 0 012.741 2.74v6.974h12.143v-.547a1.882 1.882 0 011.821-1.874V28.768zm-7.893 17.607h-6.071v2.428h6.071v-2.428zM57 43.34h-6.68v7.285H57v-7.286zm-34 8.187c0 .843.684 1.526 1.526 1.526h9.698c.842 0 1.525-.683 1.526-1.526v-.295H23v.295z" fill="#fff"/><path d="M23 50.018h12.75V36.66H23v13.357zm11.224-16.393h-9.698c-.842 0-1.525.684-1.526 1.526v.295h12.75v-.295c0-.842-.684-1.525-1.526-1.526zm11.847 16.393h-9.107v1.214h9.714v-.607a.607.607 0 00-.607-.607z" fill="#fff"/></svg>