<svg width="80" height="80" fill="none" xmlns="http://www.w3.org/2000/svg"><circle cx="40" cy="40" r="40" fill="#35AFBF"/><path d="M48.224 45.189a6.646 6.646 0 01-5.38 2.745h-3.099c-1.07 0-1.982-.68-2.327-1.631a7.847 7.847 0 01-1.252-.495 8.429 8.429 0 01-2.338-1.73C29.351 45.06 26 49.05 26 53.822v.624c0 .858.695 1.553 1.553 1.553h24.092c.857 0 1.553-.695 1.553-1.553v-.624c0-3.687-2-6.906-4.974-8.634zm-16.046-6.754c.668 0 1.249-.37 1.55-.916a.853.853 0 00.024.065l.007.02c.706 1.857 2.08 3.415 3.89 4.096a2.473 2.473 0 012.097-1.16h3.1c.308 0 .596-.086.848-.227.424-.237.805-.838 1.001-1.157.315-.51.56-1.05.775-1.638.122.22.289.413.49.563v.76a3.118 3.118 0 01-3.115 3.114h-3.1a1.06 1.06 0 000 2.122h3.1a5.242 5.242 0 005.236-5.236v-.76c.43-.322.707-.836.707-1.414V32.24c0-.59-.29-1.112-.734-1.433C47.71 26.445 44.05 23 39.6 23s-8.11 3.445-8.455 7.807a1.765 1.765 0 00-.734 1.434v4.426a1.77 1.77 0 001.768 1.768zM39.6 25.122a6.369 6.369 0 016.329 5.73c-.209.163-.38.373-.497.613-1.001-2.611-3.236-4.43-5.832-4.43-2.652 0-4.85 1.881-5.828 4.42a.6.6 0 00-.004.01 1.776 1.776 0 00-.497-.614 6.369 6.369 0 016.33-5.73z" fill="#fff"/></svg>