<svg width="80" height="80" fill="none" xmlns="http://www.w3.org/2000/svg"><circle cx="40" cy="40" r="40" fill="#35AFBF"/><g clip-path="url(#clip0_206_23)" fill="#fff"><path d="M38.883 28.875c-5.27.525-9.472 4.728-9.997 9.997h4.412v2.234h-4.412c.525 5.27 4.728 9.472 9.997 9.998V46.69h2.234v4.413c5.27-.526 9.472-4.728 9.998-9.998h-4.413v-2.234h4.413c-.526-5.27-4.729-9.472-9.998-9.997v4.412h-2.234v-4.412zm2.234 6.646v3.87l2.854 1.903-1.24 1.859-3.848-2.566v-5.066h2.234z"/><path d="M55.217 28.628l3.097.19.136-2.23-6.853-.419-.425 6.293 2.23.15.165-2.455a16.677 16.677 0 013.188 9.832c0 9.24-7.517 16.756-16.756 16.756-9.238 0-16.755-7.517-16.755-16.756 0-9.238 7.517-16.755 16.755-16.755V21C29.505 21 21.01 29.493 21.01 39.99c0 16.764 20.42 25.425 32.417 13.427a18.865 18.865 0 005.562-13.428c0-4.134-1.327-8.094-3.772-11.36z"/></g><defs><clipPath id="clip0_206_23"><path fill="#fff" transform="translate(21 21)" d="M0 0h38v38H0z"/></clipPath></defs></svg>