<svg width="44" height="31" fill="none" xmlns="http://www.w3.org/2000/svg"><path d="M8.306 3.047C10.698 1.788 13.355.926 16.084.845l.364.434c-2.415.693-4.77 1.607-6.942 2.857-.898.543-1.811 1.085-2.59 1.787 1.96-.96 3.963-1.873 6.09-2.42 1.146-.318 2.305-.61 3.49-.743 2.841-.392 5.731-.565 8.59-.251 2.04.229 4.055.655 6.01 1.272a33.28 33.28 0 014.969 2.085c-.424-.421-.928-.753-1.427-1.08-2.293-1.5-4.854-2.57-7.481-3.368.236-.216.392-.642.782-.574 3.447.215 6.762 1.539 9.563 3.49.2.128.428.25.514.485 1.738 3.42 3.026 7.053 3.91 10.771.733 3.126 1.154 6.325 1.202 9.533.007.16.007.333-.109.463-1.858 2.547-4.796 4.198-7.881 4.871a16.688 16.688 0 01-3.146.38 142.383 142.383 0 01-2.399-2.907c1.105-.283 2.15-.742 3.151-1.274 1.31-.753 2.545-1.705 3.412-2.942-1.243.781-2.541 1.483-3.925 1.996a33.57 33.57 0 01-2.694.967c-1.565.49-3.192.754-4.82.943-1.878.2-3.776.14-5.65-.069-1.948-.205-3.855-.687-5.713-1.285-1.532-.547-3.086-1.086-4.47-1.948-.354-.22-.707-.44-1.072-.64.547.828 1.316 1.486 2.093 2.102 1.269.947 2.729 1.632 4.253 2.082-.686.856-1.384 1.703-2.094 2.54-.167.17-.275.49-.572.426a16.935 16.935 0 01-4.32-.735c-1.924-.653-3.758-1.645-5.2-3.069-.504-.488-.997-1.011-1.34-1.622-.037-5.324 1.1-10.609 2.923-15.608.652-1.762 1.388-3.502 2.286-5.157.747-.624 1.61-1.115 2.465-1.59zm6.344 11.136c-1.29.143-2.416 1.034-2.923 2.192-.818 1.732-.258 4.008 1.365 5.097.821.556 1.893.756 2.857.49 1.06-.255 1.931-1.045 2.4-1.996.788-1.569.473-3.618-.823-4.837-.76-.697-1.835-1.089-2.876-.946zm13.062.031c-1.802.33-3.096 2.078-3.073 3.84-.022 1.391.684 2.806 1.913 3.533.815.51 1.86.619 2.781.348 1.024-.28 1.858-1.06 2.308-1.988.818-1.633.406-3.796-1.025-4.972a3.557 3.557 0 00-1.365-.699 3.598 3.598 0 00-1.539-.062z" fill="#E7E7E7"/></svg>